control3min_grf.mot
version=1
nRows=27
nColumns 19
inDegrees=yes
endheader
time	1_ground_force_vx	1_ground_force_vy	1_ground_force_vz	1_ground_force_px	1_ground_force_py	1_ground_force_pz	1_ground_torque_x	1_ground_torque_y	1_ground_torque_z	2_ground_force_vx	2_ground_force_vy	2_ground_force_vz	2_ground_force_px	2_ground_force_py	2_ground_force_pz	2_ground_torque_x	2_ground_torque_y	2_ground_torque_z
            0.005000	            0.411129	            4.868236	           -0.209434	           -0.206217	            0.006042	           -0.361944	            0.570408	           -0.222436	            0.221829	            0.040313	            1.662023	           -1.261165	           -0.249345	            0.005496	           -0.673318	           -0.468932	           -0.218435	           -0.189078
            0.005500	            0.365987	            4.146181	            0.016868	           -0.206217	            0.006042	           -0.361944	            0.486085	           -0.167166	            0.257942	           -0.149683	            2.397438	           -1.117673	           -0.249345	            0.005496	           -0.673318	           -0.356288	           -0.199123	           -0.189059
            0.006000	            0.457640	            4.326465	            0.017413	           -0.206217	            0.006042	           -0.361944	            0.561103	           -0.111729	            0.280695	           -0.054757	            2.030316	           -1.353667	           -0.249345	            0.005496	           -0.673318	           -0.356255	           -0.199392	           -0.113658
            0.006500	            0.594908	            4.507150	           -0.073867	           -0.206217	            0.006042	           -0.361944	            0.546099	           -0.139322	            0.267673	           -0.008407	            2.213295	           -0.977605	           -0.249345	            0.005496	           -0.673318	           -0.469001	           -0.190346	           -0.113576
            0.007000	            0.595412	            4.866699	            0.156959	           -0.206217	            0.006042	           -0.361944	            0.536191	           -0.176450	            0.305122	            0.224369	            2.583609	           -1.304888	           -0.249345	            0.005496	           -0.673318	           -0.412771	           -0.170767	           -0.245484
            0.007500	            0.412040	            4.866663	            0.157414	           -0.206217	            0.006042	           -0.361944	            0.517258	           -0.167053	            0.240996	           -0.146278	            1.476027	           -0.933246	           -0.249345	            0.005496	           -0.673318	           -0.431556	           -0.170835	           -0.245476
            0.008000	            0.457362	            5.227990	           -0.024578	           -0.206217	            0.006042	           -0.361944	            0.506043	           -0.222421	            0.223931	           -0.101442	            2.028808	           -0.978223	           -0.249345	            0.005496	           -0.673318	           -0.375150	           -0.180218	           -0.207833
            0.008500	            0.502845	            5.949454	           -0.113312	           -0.206217	            0.006042	           -0.361944	            0.565850	           -0.176255	            0.244707	           -0.054675	            2.029647	           -1.165955	           -0.249345	            0.005496	           -0.673318	           -0.374859	           -0.265158	           -0.245837
            0.009000	            0.594420	            4.688202	           -0.256518	           -0.206217	            0.006042	           -0.361944	            0.497491	           -0.157825	            0.267708	            0.132766	            2.029989	           -1.072178	           -0.249345	            0.005496	           -0.673318	           -0.393781	           -0.227415	           -0.245694
            0.009500	            0.365106	            5.228955	           -0.253630	           -0.206217	            0.006042	           -0.361944	            0.497431	           -0.075304	            0.389856	           -0.100881	            1.845497	           -1.213520	           -0.249345	            0.005496	           -0.673318	           -0.337580	           -0.170899	           -0.132415
            0.010000	            0.457607	            4.506730	            0.018186	           -0.206217	            0.006042	           -0.361944	            0.448174	           -0.139159	            0.205659	           -0.146922	            1.660007	           -0.885661	           -0.249345	            0.005496	           -0.673318	           -0.318751	           -0.189535	           -0.189041
            0.010500	            0.502701	            4.868450	           -0.255517	           -0.206217	            0.006042	           -0.361944	            0.553497	           -0.166777	            0.188423	           -0.100819	            1.844994	           -1.072736	           -0.249345	            0.005496	           -0.673318	           -0.450308	           -0.180355	           -0.245502
            0.011000	            0.228605	            3.965693	            0.062292	           -0.206217	            0.006042	           -0.361944	            0.521782	           -0.204194	            0.251837	           -0.057292	            2.765905	           -1.069471	           -0.249345	            0.005496	           -0.673318	           -0.299922	           -0.208171	           -0.245667
            0.011500	            0.411291	            5.228374	           -0.116176	           -0.206217	            0.006042	           -0.361944	            0.566312	           -0.222514	            0.240624	            0.037655	            2.398616	           -1.258537	           -0.249345	            0.005496	           -0.673318	           -0.374825	           -0.274611	           -0.245871
            0.012000	            0.457460	            4.687193	           -0.026897	           -0.206217	            0.006042	           -0.361944	            0.544264	           -0.232221	            0.355400	            0.039025	            2.029985	           -1.165995	           -0.249345	            0.005496	           -0.673318	           -0.450010	           -0.256178	           -0.189221
            0.012500	            0.641045	            4.146234	            0.016185	           -0.206217	            0.006042	           -0.361944	            0.579973	           -0.157778	            0.269478	            0.037093	            2.581928	           -1.023239	           -0.249345	            0.005496	           -0.673318	           -0.412729	           -0.180287	           -0.226668
            0.013000	            0.457215	            5.408452	           -0.069661	           -0.206217	            0.006042	           -0.361944	            0.470322	           -0.129995	            0.224409	            0.179719	            2.029321	           -0.837558	           -0.249345	            0.005496	           -0.673318	           -0.281190	           -0.180148	           -0.132472
            0.013500	            0.411536	            4.507115	           -0.073412	           -0.206217	            0.006042	           -0.361944	            0.564705	           -0.102187	            0.203573	            0.225760	            2.214810	           -1.165417	           -0.249345	            0.005496	           -0.673318	           -0.356517	           -0.142205	           -0.245407
            0.014000	            0.594633	            4.147209	           -0.212981	           -0.206217	            0.006042	           -0.361944	            0.514751	           -0.167224	            0.305241	           -0.003152	            0.740610	           -1.123646	           -0.249345	            0.005496	           -0.673318	           -0.337587	           -0.180015	           -0.226699
            0.014500	            0.640539	            5.048153	           -0.117518	           -0.206217	            0.006042	           -0.361944	            0.510418	           -0.232146	            0.363290	           -0.011025	            2.949553	           -0.881121	           -0.249345	            0.005496	           -0.673318	           -0.337460	           -0.208575	           -0.170250
            0.015000	            0.503091	            5.228195	           -0.070547	           -0.206217	            0.006042	           -0.361944	            0.583242	           -0.278088	            0.281849	           -0.007825	            2.029816	           -1.165975	           -0.249345	            0.005496	           -0.673318	           -0.375039	           -0.208644	           -0.189084
            0.015500	            0.274071	            5.408023	            0.022506	           -0.206217	            0.006042	           -0.361944	            0.522628	           -0.203852	            0.178547	           -0.055360	            2.213962	           -1.212226	           -0.249345	            0.005496	           -0.673318	           -0.375133	           -0.180353	           -0.170133
            0.016000	            0.457622	            5.047331	            0.066361	           -0.206217	            0.006042	           -0.361944	            0.652500	           -0.120873	            0.261605	           -0.009195	            2.398447	           -1.258517	           -0.249345	            0.005496	           -0.673318	           -0.356194	           -0.227414	           -0.208010
            0.016500	            0.594810	            5.047947	           -0.071548	           -0.206217	            0.006042	           -0.361944	            0.470660	           -0.120850	            0.267921	            0.085190	            2.214470	           -1.212286	           -0.249345	            0.005496	           -0.673318	           -0.393952	           -0.180152	           -0.245526
            0.017000	            0.457263	            5.768787	           -0.022259	           -0.206217	            0.006042	           -0.361944	            0.505968	           -0.176687	            0.336896	           -0.195848	            2.212953	           -1.071382	           -0.249345	            0.005496	           -0.673318	           -0.412984	           -0.113983	           -0.264132
            0.017500	            0.548673	            5.408863	           -0.161600	           -0.206217	            0.006042	           -0.361944	            0.511655	           -0.175923	            0.171625	           -0.009154	            2.398112	           -1.164661	           -0.249345	            0.005496	           -0.673318	           -0.431634	           -0.142678	           -0.188824
            0.018000	            0.595331	            4.686629	            0.110330	           -0.206217	            0.006042	           -0.361944	            0.500488	           -0.194543	            0.211149	           -0.102833	            2.397607	           -1.117693	           -0.249345	            0.005496	           -0.673318	           -0.318758	           -0.198651	           -0.283326
